<svg version="1.2" xmlns="http://www.w3.org/2000/svg" viewBox="0 0 1521 596" width="1521" height="596">
	<title>cars_logo_primary-18fae756e8fa9579eba57ecb7745649a-svg</title>
	<style>
		.s0 { fill: #65299d } 
	</style>
	<path id="Layer" class="s0" d="m1111.3 35.1c-111.6-20-234.5-21.6-365.2-13.5-197.4 12.2-380.4 54.5-515.1 121.9-121.8 61-189.2 134.6-185.1 202 2.4 37.3 23.6 70.7 66.7 103.6-72.6-46.6-112.6-99.4-112.6-151.2 0-71.4 76-144.7 208.6-201.1 146.6-62.5 342.5-96.8 551.7-96.8 124.2 0 243.7 12.1 351 35.1z"/>
	<path id="Layer" class="s0" d="m1520.6 297.9c0 71.4-76 144.7-208.6 201.1-146.6 62.4-342.6 96.8-551.7 96.8-124.5 0-244.3-12.2-351.8-35.2 111.8 20 234.1 22.4 365.1 14.3 197.4-12.2 380.3-55.2 515.1-122.7 121.8-61 189.3-134.6 185.1-202-2.3-37.2-22.5-70.5-65.5-103.4 72.4 46.7 112.3 99.4 112.3 151.1z"/>
	<path id="Layer" class="s0" d="m216.1 294.8c0-40.6 30.5-71.9 72-71.9 26.7 0 49.9 14.2 61.1 35.1l-30.3 17.8c-5.5-11.2-17.2-18.3-31.1-18.3-21 0-36.6 15.5-36.6 37.3 0 21.6 15.6 37.1 36.6 37.1 14.2 0 25.9-6.8 31.4-18l30.5 17.5c-11.7 21.3-34.9 35.4-61.6 35.4-41.5 0-72-31.4-72-72z"/>
	<path id="Layer" fill-rule="evenodd" class="s0" d="m504.3 226.7v136.3h-35.2v-16.1c-9.8 12.3-24.5 19.9-44.4 19.9-36.3 0-66.3-31.4-66.3-72 0-40.6 30-71.9 66.3-71.9 19.9 0 34.6 7.6 44.4 19.9v-16.1zm-36.9 68.1c0-22.9-16.1-38.4-37.9-38.4-21.6 0-37.7 15.6-37.7 38.4 0 22.9 16.1 38.4 37.7 38.4 21.8 0.1 37.9-15.5 37.9-38.4z"/>
	<path id="Layer" class="s0" d="m601.7 224v39.2c-18.3-2.2-41.5 6-41.5 34.6v65.1h-35.2v-136.2h35.2v23.4c7.1-18.5 24.3-26.1 41.5-26.1z"/>
	<path id="Layer" class="s0" d="m724.2 323.2c0 29.4-25.6 43.6-54.8 43.6-27.3 0-47.4-11.5-57.3-32.4l30.6-17.2c3.8 11.2 13.1 17.7 26.7 17.7 11.2 0 18.8-3.8 18.8-11.7 0-19.9-70.3-9-70.3-56.9 0-27.8 23.7-43.4 51.8-43.4 22.1 0 41.1 10.1 51.7 28.9l-30 16.4c-4-8.7-11.6-13.9-21.8-13.9-8.7 0-15.8 3.8-15.8 11.1 0.1 20.2 70.4 7.6 70.4 57.8z"/>
	<path id="Layer" class="s0" d="m754.8 330.9c7.1-1.5 14.4 1.5 18.5 7.4 4.1 6 4.2 13.9 0.2 20-3.9 6.1-11.1 9.2-18.3 7.8-7.1-1.3-12.8-6.8-14.3-13.9-0.5-2.3-0.5-4.7-0.1-7 0.5-2.3 1.4-4.5 2.6-6.5 1.3-2 3-3.7 4.9-5 2-1.3 4.2-2.3 6.5-2.8z"/>
	<path id="Layer" class="s0" d="m784.2 294.8c0-40.6 30.6-71.9 72-71.9 26.8 0 50 14.2 61.1 35.1l-30.3 17.8c-5.4-11.2-17.1-18.3-31-18.3-21 0-36.6 15.5-36.6 37.3 0 21.6 15.6 37.1 36.6 37.1 14.2 0 25.8-6.8 31.3-18l30.6 17.5c-11.7 21.2-35 35.4-61.7 35.4-41.4 0-72-31.4-72-72z"/>
	<path id="Layer" fill-rule="evenodd" class="s0" d="m927.3 294.8c0-40.6 31.9-71.9 72-71.9 40.1 0 72.3 31.3 72.3 71.9 0 40.7-32.2 72-72.3 72-40.1 0-72-31.4-72-72zm109.1 0c0-22-16.1-37.6-37.1-37.6-20.7 0-36.8 15.6-36.8 37.6 0 22.1 16.1 37.6 36.8 37.6 21 0 37.1-15.5 37.1-37.6z"/>
	<path id="Layer" class="s0" d="m1291.7 279v84h-35.2v-81.5c0-16.1-8.2-25.9-22.9-25.9-15.5 0-25.4 10.4-25.4 30.8v76.6h-35.1v-81.5c0-16.1-8.2-25.9-22.9-25.9-15.1 0-25.7 10.4-25.7 30.8v76.6h-35.2v-136.3h35.2v14.4c7.6-11.4 20.5-18.2 37.9-18.2 16.9 0 29.5 7.1 37.1 19.6 8.5-12.3 22.1-19.6 40.7-19.6 31.1 0 51.5 22.1 51.5 56.1z"/>
	<path id="Layer" class="s0" d="m1423.4 546v-26.1h-9.3v-3.3h22.3v3.3h-9.3v26.1z"/>
	<path id="Layer" class="s0" d="m1466.4 546v-24.4l-10 24.4h-1.5l-10-24.4v24.4h-3.7v-29.4h5.3l9.1 22.4 9.2-22.4h5.2v29.4z"/>
</svg>